<!--?xml version="1.0" encoding="utf-8"?-->
<!-- Generator: Adobe Illustrator 18.1.1, SVG Export Plug-In . SVG Version: 6.00 Build 0)  -->

<svg version="1.1" id="_x31_0" xmlns="http://www.w3.org/2000/svg" xmlns:xlink="http://www.w3.org/1999/xlink" x="0px" y="0px" viewBox="0 0 512 512" style="width: 512px; height: 512px; opacity: 1;" xml:space="preserve">
<style type="text/css">
	.st0{fill:#374149;}
</style>
<g>
	<circle class="st0" cx="229.019" cy="107.843" r="16.332" style="fill: rgb(255, 255, 255);"></circle>
	<circle class="st0" cx="282.981" cy="107.845" r="16.33" style="fill: rgb(255, 255, 255);"></circle>
	<path class="st0" d="M285.465,195.332c0-29.278-13.191-53.012-29.465-53.012c-16.274,0-29.465,23.734-29.465,53.012
		c0,21.191,9.222,39.426,18.816,47.91v98.938c-2.398,8.274-4.086,18.882-4.086,30.453c0,26.43,0.676,47.852,14.734,47.852
		c14.058,0,14.734-21.422,14.734-47.852c0-11.57-1.687-22.179-4.086-30.453v-98.938
		C276.242,234.758,285.465,216.523,285.465,195.332z" style="fill: rgb(255, 255, 255);"></path>
	<path class="st0" d="M203.402,171.906l1.554-15.641c0,0-133.348-25.649-164.993-30.543c-33.992-5.254-57.629,33.504-22.859,57.664
		C61.152,213.988,203.402,171.906,203.402,171.906z" style="fill: rgb(255, 255, 255);"></path>
	<path class="st0" d="M56.461,263.531c-21.122,9.828-26.13,34.527-12.68,48.122c0.012,0.011,0.027,0.027,0.039,0.042
		c5.367,5.398,13.57,9.09,24.98,9.297c50.809,0.926,140.739-107.098,140.739-107.098l-7.008-13.145
		C202.531,200.75,83.968,250.726,56.461,263.531z" style="fill: rgb(255, 255, 255);"></path>
	<path class="st0" d="M472.036,125.722c-31.645,4.894-164.993,30.543-164.993,30.543l1.554,15.641c0,0,142.25,42.082,186.298,11.48
		C529.665,159.226,506.028,120.468,472.036,125.722z" style="fill: rgb(255, 255, 255);"></path>
	<path class="st0" d="M455.539,263.531c-27.507-12.805-146.07-62.782-146.07-62.782l-7.008,13.145
		c0,0,89.926,108.024,140.739,107.098c11.414-0.206,19.617-3.902,24.984-9.304c0.012-0.008,0.02-0.02,0.031-0.032
		C481.673,298.066,476.661,273.363,455.539,263.531z" style="fill: rgb(255, 255, 255);"></path>
</g>
</svg>
